<svg width="32" height="32" viewBox="0 0 32 32" fill="none" xmlns="http://www.w3.org/2000/svg">
<rect width="32" height="32" rx="16" fill="none"/>
<path d="M18.9541 6.32615C18.8279 6.26469 18.6871 6.23985 18.5476 6.25443C18.408 6.26901 18.2754 6.32244 18.1647 6.40865L11.6172 11.5002H7.375C6.97718 11.5002 6.59564 11.6583 6.31434 11.9396C6.03304 12.2209 5.875 12.6024 5.875 13.0002V19.0002C5.875 19.398 6.03304 19.7796 6.31434 20.0609C6.59564 20.3422 6.97718 20.5002 7.375 20.5002H11.6172L18.1647 25.5918C18.2755 25.6779 18.4082 25.7312 18.5478 25.7457C18.6874 25.7601 18.8283 25.7351 18.9543 25.6735C19.0804 25.6118 19.1867 25.5161 19.2611 25.3971C19.3354 25.278 19.3749 25.1406 19.375 25.0002V7.00021C19.375 6.85971 19.3356 6.72202 19.2611 6.60285C19.1867 6.48367 19.0803 6.3878 18.9541 6.32615ZM17.875 23.4665L12.3353 19.1587C12.204 19.0557 12.0419 18.9999 11.875 19.0002H7.375V13.0002H11.875C12.0419 13.0005 12.204 12.9447 12.3353 12.8418L17.875 8.53396V23.4665ZM23.125 13.7502V18.2502C23.125 18.4491 23.046 18.6399 22.9053 18.7805C22.7647 18.9212 22.5739 19.0002 22.375 19.0002C22.1761 19.0002 21.9853 18.9212 21.8447 18.7805C21.704 18.6399 21.625 18.4491 21.625 18.2502V13.7502C21.625 13.5513 21.704 13.3605 21.8447 13.2199C21.9853 13.0792 22.1761 13.0002 22.375 13.0002C22.5739 13.0002 22.7647 13.0792 22.9053 13.2199C23.046 13.3605 23.125 13.5513 23.125 13.7502ZM26.125 12.2502V19.7502C26.125 19.9491 26.046 20.1399 25.9053 20.2805C25.7647 20.4212 25.5739 20.5002 25.375 20.5002C25.1761 20.5002 24.9853 20.4212 24.8447 20.2805C24.704 20.1399 24.625 19.9491 24.625 19.7502V12.2502C24.625 12.0513 24.704 11.8605 24.8447 11.7199C24.9853 11.5792 25.1761 11.5002 25.375 11.5002C25.5739 11.5002 25.7647 11.5792 25.9053 11.7199C26.046 11.8605 26.125 12.0513 26.125 12.2502Z" fill="#3B2164"/>
</svg>
