<svg width="32" height="32" viewBox="0 0 32 32" fill="none" xmlns="http://www.w3.org/2000/svg">
<rect width="32" height="32" rx="16" fill="none"/>
<g clip-path="url(#clip0_81_14)">
<path d="M19.3291 6.32594C19.2029 6.26448 19.0621 6.23963 18.9226 6.25422C18.783 6.2688 18.6504 6.32223 18.5397 6.40844L11.9922 11.5H7.75C7.35218 11.5 6.97064 11.658 6.68934 11.9393C6.40804 12.2206 6.25 12.6022 6.25 13V19C6.25 19.3978 6.40804 19.7794 6.68934 20.0607C6.97064 20.342 7.35218 20.5 7.75 20.5H11.9922L18.5397 25.5916C18.6505 25.6777 18.7832 25.731 18.9228 25.7455C19.0624 25.7599 19.2033 25.7349 19.3293 25.6733C19.4554 25.6116 19.5617 25.5159 19.6361 25.3969C19.7104 25.2778 19.7499 25.1403 19.75 25V7C19.75 6.8595 19.7106 6.72181 19.6361 6.60263C19.5617 6.48346 19.4553 6.38759 19.3291 6.32594ZM18.25 23.4663L12.7103 19.1584C12.579 19.0555 12.4169 18.9997 12.25 19H7.75V13H12.25C12.4169 13.0003 12.579 12.9445 12.7103 12.8416L18.25 8.53375V23.4663ZM27.7806 17.7194C27.9214 17.8601 28.0004 18.051 28.0004 18.25C28.0004 18.449 27.9214 18.6399 27.7806 18.7806C27.6399 18.9214 27.449 19.0004 27.25 19.0004C27.051 19.0004 26.8601 18.9214 26.7194 18.7806L25 17.0603L23.2806 18.7806C23.1399 18.9214 22.949 19.0004 22.75 19.0004C22.551 19.0004 22.3601 18.9214 22.2194 18.7806C22.0786 18.6399 21.9996 18.449 21.9996 18.25C21.9996 18.051 22.0786 17.8601 22.2194 17.7194L23.9397 16L22.2194 14.2806C22.0786 14.1399 21.9996 13.949 21.9996 13.75C21.9996 13.551 22.0786 13.3601 22.2194 13.2194C22.3601 13.0786 22.551 12.9996 22.75 12.9996C22.949 12.9996 23.1399 13.0786 23.2806 13.2194L25 14.9397L26.7194 13.2194C26.8601 13.0786 27.051 12.9996 27.25 12.9996C27.449 12.9996 27.6399 13.0786 27.7806 13.2194C27.9214 13.3601 28.0004 13.551 28.0004 13.75C28.0004 13.949 27.9214 14.1399 27.7806 14.2806L26.0603 16L27.7806 17.7194Z" fill="#3B2164"/>
</g>
<defs>
<clipPath id="clip0_81_14"> 
<rect width="24" height="24" fill="none" transform="translate(4 4)"/>
</clipPath>
</defs>
</svg>
