<svg width="22" height="21" viewBox="0 0 22 21" fill="none" xmlns="http://www.w3.org/2000/svg">
<path d="M20.9647 9.76719L16.7459 13.4075L18.0313 18.8516C18.1022 19.1471 18.0839 19.457 17.9788 19.7422C17.8736 20.0273 17.6864 20.2749 17.4406 20.4537C17.1948 20.6325 16.9015 20.7344 16.5979 20.7466C16.2942 20.7588 15.9937 20.6807 15.7344 20.5222L11 17.6084L6.26282 20.5222C6.00353 20.6798 5.70341 20.7571 5.40026 20.7445C5.0971 20.7318 4.80446 20.6298 4.55919 20.4512C4.31392 20.2726 4.12698 20.0254 4.02191 19.7407C3.91685 19.4561 3.89835 19.1467 3.96875 18.8516L5.25875 13.4075L1.04 9.76719C0.810594 9.56892 0.644682 9.30745 0.562986 9.01545C0.48129 8.72345 0.487431 8.41385 0.580642 8.12531C0.673852 7.83678 0.850002 7.5821 1.08709 7.39308C1.32418 7.20407 1.6117 7.08908 1.91375 7.0625L7.445 6.61625L9.57875 1.4525C9.69425 1.17108 9.89082 0.930358 10.1435 0.760942C10.3961 0.591526 10.6935 0.501068 10.9977 0.501068C11.3019 0.501068 11.5992 0.591526 11.8518 0.760942C12.1045 0.930358 12.3011 1.17108 12.4166 1.4525L14.5494 6.61625L20.0806 7.0625C20.3833 7.0881 20.6716 7.20244 20.9096 7.39119C21.1475 7.57995 21.3245 7.83473 21.4183 8.12361C21.5121 8.4125 21.5185 8.72264 21.4368 9.01517C21.3552 9.30771 21.189 9.56963 20.9591 9.76813L20.9647 9.76719Z" fill="#F3CD02"/>
</svg>
