<svg viewBox="0 0 242 110" fill="none" xmlns="http://www.w3.org/2000/svg">
<g filter="url(#filter0_d_6427_46)">
<path d="M124.391 44.3707C116.68 44.3707 110.404 50.7068 110.404 58.4928C110.404 66.2788 116.68 72.6149 124.391 72.6149C132.103 72.6149 138.378 66.2788 138.378 58.4928C138.378 50.7068 132.103 44.3707 124.391 44.3707ZM124.391 67.525C119.461 67.525 115.449 63.4741 115.449 58.4962C115.449 53.5184 119.461 49.4675 124.391 49.4675C129.321 49.4675 133.334 53.5184 133.334 58.4962C133.334 63.4741 129.321 67.525 124.391 67.525Z" fill="white"/>
<path d="M127.515 55.1516H121.263V61.464H127.515V55.1516Z" fill="white"/>
<path d="M79.4096 44.8122V49.9666C76.8974 50.7815 72.7776 52.8291 69.3169 57.902V44.8122H64.2723V72.1769H69.3169V71.3212C71.4559 60.9546 76.3122 56.9547 79.4096 55.4301V72.1803H84.4543V44.8156H79.4096V44.8122Z" fill="white"/>
<path d="M182.169 44.8122V56.2518C176.782 55.8138 172.531 51.2501 172.531 45.6984V44.8122H167.486V45.6984C167.486 54.0583 173.997 60.9105 182.169 61.3587V61.3791C182.169 64.452 179.694 67.0836 176.65 67.0836H173.496V64.6897H168.451V72.1769H176.65C182.475 72.1769 187.214 67.2602 187.214 61.3791V49.9055H188.838V44.8122H182.169Z" fill="white"/>
<path d="M102.319 53.3859C102.743 52.2892 103.012 51.1143 103.103 49.8919H105.05V44.7986H87.9586V49.8919H98.0311C97.5771 53.3961 94.6075 56.116 91.0123 56.116H90.491V61.2093H91.0123C93.8978 61.2093 96.548 60.1838 98.6331 58.4793H102.121V60.9614C102.121 64.3468 99.3932 67.1006 96.0402 67.1006H93.0134V64.7203H87.9687V72.1939H96.0402C102.174 72.1939 107.165 67.1549 107.165 60.9614V53.3859H102.319Z" fill="white"/>
<path d="M164.735 69.0089C164.735 64.1498 162.014 59.9224 158.029 57.7934C161.479 54.9139 163.682 50.5608 163.682 45.7018V44.8156H142.327V49.9089H143.951V56.5574H140.854V61.6507H143.951V72.1803H164.732V69.0123L164.735 69.0089ZM157.827 49.7832C156.344 53.3486 152.984 55.9292 148.999 56.2518V49.7832H157.827ZM148.999 61.3587C149.571 61.3281 150.132 61.2636 150.687 61.1719H152.174C155.866 61.1719 158.96 63.7865 159.744 67.2805H149.002V61.3621L148.999 61.3587Z" fill="white"/>
<path d="M39.6073 44.8122V49.9055H41.2317V56.554H38.1342V61.6473H41.2317V72.1769H46.2763V61.3587C54.4486 60.9105 60.9596 54.0583 60.9596 45.6984V44.8122H39.6039H39.6073ZM46.2797 56.2518V49.7832H55.1078C53.6247 53.3486 50.2649 55.9292 46.2797 56.2518Z" fill="white"/>
<path d="M35.7296 44.8122H13.1195V72.1769H18.1641V49.9055H28.2568V72.1769H33.3015V49.9055H35.7296V44.8122Z" fill="white"/>
<path d="M213.89 44.3707C206.891 44.3707 201.077 49.5863 200.061 56.3706H197.633V44.8122H192.588V72.1769H197.633V61.464H200.216C201.571 67.8306 207.187 72.6183 213.89 72.6183C221.602 72.6183 227.877 66.2822 227.877 58.4962C227.877 50.7102 221.602 44.3741 213.89 44.3741V44.3707ZM213.89 67.525C208.96 67.525 204.948 63.4741 204.948 58.4962C204.948 53.5184 208.96 49.4675 213.89 49.4675C218.82 49.4675 222.833 53.5184 222.833 58.4962C222.833 63.4741 218.82 67.525 213.89 67.525Z" fill="white"/>
<path d="M217.014 55.1516H210.762V61.464H217.014V55.1516Z" fill="white"/>
<path d="M40.3606 100.085V102.465H32.1109V94.686C34.1052 96.1393 36.5536 97.0018 39.197 97.0018H39.7183V91.9085H39.197C35.4572 91.9085 32.3934 88.9679 32.1378 85.26H45.0185V80.1667H25.4419V85.26H27.0663V102.469H25.4419V107.562H45.4086V100.088H40.364L40.3606 100.085Z" fill="white"/>
<path d="M187.049 80.1972H195.121V87.6708H190.076V85.2905H187.049C183.696 85.2905 180.969 88.0443 180.969 91.4297V96.3295C180.969 99.7149 183.696 102.469 187.049 102.469H190.076V100.088H195.121V107.562H187.049C180.915 107.562 175.924 102.523 175.924 96.3295V91.4297C175.924 85.2362 180.915 80.1972 187.049 80.1972Z" fill="white"/>
<path d="M159.936 79.7558C152.224 79.7558 145.949 86.0919 145.949 93.8779C145.949 101.664 152.224 108 159.936 108C167.647 108 173.923 101.664 173.923 93.8779C173.923 86.0919 167.647 79.7558 159.936 79.7558ZM159.936 102.91C155.005 102.91 150.993 98.8592 150.993 93.8813C150.993 88.9034 155.005 84.8525 159.936 84.8525C164.866 84.8525 168.878 88.9034 168.878 93.8813C168.878 98.8592 164.866 102.91 159.936 102.91Z" fill="white"/>
<path d="M163.06 90.5333H156.808V96.8456H163.06V90.5333Z" fill="white"/>
<path d="M70.4537 85.2905V80.1972H62.1804C54.2771 80.1972 47.8435 86.6895 47.8435 94.6725V107.562H52.8882V98.5332C54.5361 99.2123 56.2916 99.5519 58.0472 99.5519C59.8027 99.5519 61.3968 99.2395 62.9775 98.6215V107.562H68.0221V95.1852L68.1096 95.0969L68.0221 95.0086V85.2939H70.4503L70.4537 85.2905ZM62.9808 92.8898C60.0146 94.9916 56.0192 94.9814 53.0664 92.8524C53.9072 88.5469 57.6739 85.2905 62.1804 85.2905H62.9808V92.8898Z" fill="white"/>
<path d="M1.47304 80.1972V85.2905H3.09742V91.939H0V97.0324H3.09742V107.562H8.14207V96.7437C16.3144 96.2955 22.8254 89.4433 22.8254 81.0835V80.1972H1.47304ZM8.14207 91.6368V85.1683H16.9702C15.4871 88.7336 12.1274 91.3143 8.14207 91.6368Z" fill="white"/>
<path d="M119.394 107.562V106.676C119.394 98.3159 112.883 91.4637 104.71 91.0154V80.1972H99.6656V102.469H98.0412V107.562H119.397H119.394ZM113.538 102.591H104.71V96.1224C108.692 96.4483 112.055 99.0256 113.538 102.591Z" fill="white"/>
<path d="M240.997 107.562V106.676C240.997 98.3159 234.486 91.4637 226.313 91.0154V80.1972H221.269V102.469H219.644V107.562H241H240.997ZM235.141 102.591H226.313V96.1224C230.295 96.4483 233.658 99.0256 235.141 102.591Z" fill="white"/>
<path d="M138.227 91.9187C136.767 92.9984 135.012 93.5825 133.169 93.5825C131.326 93.5825 129.59 93.0052 128.134 91.9356V80.1972H123.09V107.562H128.134V97.7047C129.715 98.3397 131.417 98.6724 133.169 98.6724C134.921 98.6724 136.64 98.3363 138.227 97.6945V107.559H143.272V80.1938H138.227V91.9187Z" fill="white"/>
<path d="M197.67 80.1972V85.2905H205.866V107.562H210.924V85.2905H219.123V80.1972H197.67Z" fill="white"/>
<path d="M87.3768 80.1633C79.3625 80.1633 72.8415 86.7472 72.8415 94.8422V102.591H71.0018V107.562H77.8861V94.8456C77.8861 89.5621 82.1438 85.26 87.3768 85.26H87.9754V107.562H93.0201V85.26H95.4482V80.1667H87.3768V80.1633Z" fill="white"/>
<path d="M36.2744 8.98907C28.5628 8.98907 22.2873 15.3252 22.2873 23.1112C22.2873 30.8972 28.5628 37.2333 36.2744 37.2333C43.986 37.2333 50.2616 30.8972 50.2616 23.1112C50.2616 15.3252 43.986 8.98907 36.2744 8.98907ZM36.2744 32.14C31.3441 32.14 27.3319 28.0891 27.3319 23.1112C27.3319 18.1333 31.3441 14.0824 36.2744 14.0824C41.2047 14.0824 45.2169 18.1333 45.2169 23.1112C45.2169 28.0891 41.2047 32.14 36.2744 32.14Z" fill="white"/>
<path d="M39.3988 19.7666H33.1467V26.0789H39.3988V19.7666Z" fill="white"/>
<path d="M49.7941 9.4305V14.5238H57.99V36.7953H63.0481V14.5238H71.2474V9.4305H49.7941Z" fill="white"/>
<path d="M167.405 9.4305V14.5849C164.893 15.3999 160.773 17.4474 157.313 22.5204V9.4305H152.268V36.7953H157.313V35.9396C159.451 25.573 164.308 21.573 167.405 20.0484V36.7987H172.45V9.4305H167.405Z" fill="white"/>
<path d="M171.804 2.60883H153.179V7.70216H171.804V2.60883Z" fill="white"/>
<path d="M89.5628 22.4083C93.0134 19.5289 95.2162 15.1758 95.2162 10.3167V9.4305H90.1715V10.3167C90.1715 15.8685 85.9206 20.4321 80.5329 20.8701V9.4305H73.8638V14.5238H75.4882V21.1723H72.3908V26.2656H75.4882V36.7953H80.5329V25.977C81.1046 25.9465 81.6662 25.882 82.2212 25.7903H83.7076C87.9889 25.7903 91.4697 29.3047 91.4697 33.6272V36.7953H96.2688V33.6272C96.2688 28.7682 93.5481 24.5407 89.5628 22.4117V22.4083Z" fill="white"/>
<path d="M99.7059 9.4305V14.5238H101.33V21.1723H98.2329V26.2656H101.33V36.7953H106.375V25.977C114.547 25.5288 121.058 18.6766 121.058 10.3167V9.4305H99.7026H99.7059ZM106.378 20.8667V14.3982H115.206C113.723 17.9635 110.364 20.5441 106.378 20.8667Z" fill="white"/>
<path d="M135.244 8.98907C127.532 8.98907 121.257 15.3252 121.257 23.1112C121.257 30.8972 127.532 37.2333 135.244 37.2333C142.955 37.2333 149.231 30.8972 149.231 23.1112C149.231 15.3252 142.955 8.98907 135.244 8.98907ZM135.244 32.14C130.314 32.14 126.301 28.0891 126.301 23.1112C126.301 18.1333 130.314 14.0824 135.244 14.0824C140.174 14.0824 144.186 18.1333 144.186 23.1112C144.186 28.0891 140.174 32.14 135.244 32.14Z" fill="white"/>
<path d="M138.368 19.7666H132.116V26.0789H138.368V19.7666Z" fill="white"/>
<path d="M67.4965 0L51.8362 3.54298L52.8546 8.13202L68.515 4.58904L67.4965 0Z" fill="white"/>
<path d="M213.668 29.3352V31.7155H205.418V23.9363C207.413 25.3896 209.861 26.2521 212.504 26.2521H213.026V21.1587H212.504C208.765 21.1587 205.701 18.2182 205.445 14.5102H218.326V9.41691H198.749V14.5102H200.374V31.7189H198.749V36.8122H218.716V29.3386H213.671L213.668 29.3352Z" fill="white"/>
<path d="M174.804 9.4305V14.5238H183V36.7953H188.061V14.5238H196.257V9.4305H174.804Z" fill="white"/>
</g>
<defs>
<filter id="filter0_d_6427_46" x="0" y="0" width="242" height="110" filterUnits="userSpaceOnUse" color-interpolation-filters="sRGB">
<feFlood flood-opacity="0" result="BackgroundImageFix"/>
<feColorMatrix in="SourceAlpha" type="matrix" values="0 0 0 0 0 0 0 0 0 0 0 0 0 0 0 0 0 0 127 0" result="hardAlpha"/>
<feOffset dx="1" dy="2"/>
<feColorMatrix type="matrix" values="0 0 0 0 0.176471 0 0 0 0 0.278431 0 0 0 0 0.533333 0 0 0 0.8 0"/>
<feBlend mode="normal" in2="BackgroundImageFix" result="effect1_dropShadow_6427_46"/>
<feBlend mode="normal" in="SourceGraphic" in2="effect1_dropShadow_6427_46" result="shape"/>
</filter>
</defs>
</svg>
